<mxfile host="app.diagrams.net" modified="2022-07-06T04:24:42.860Z" agent="5.0 (Macintosh; Intel Mac OS X 10_15_7) AppleWebKit/605.1.15 (KHTML, like Gecko) Version/15.3 Safari/605.1.15" etag="eZG7x2sWqzF9Yp5F5FAc" version="20.0.2" type="github">
  <diagram id="5LqIRzcf2-Xa_38fcgwe" name="Page-1">
    <mxGraphModel dx="848" dy="2775" grid="1" gridSize="10" guides="1" tooltips="1" connect="1" arrows="1" fold="1" page="1" pageScale="1" pageWidth="850" pageHeight="1100" math="0" shadow="0">
      <root>
        <mxCell id="0" />
        <mxCell id="1" parent="0" />
        <mxCell id="LT_vOoL6KCZ4grznQXuA-1" value="" style="shape=image;verticalLabelPosition=bottom;labelBackgroundColor=default;verticalAlign=top;aspect=fixed;imageAspect=0;image=https://docs.pivotal.io/ops-manager/2-9/refarch/images/gcp-overview-single-vpc.png;" vertex="1" parent="1">
          <mxGeometry x="80" y="-10" width="1183.08" height="678" as="geometry" />
        </mxCell>
        <mxCell id="LT_vOoL6KCZ4grznQXuA-4" value="Project Zone / Cloud Service Provider" style="sketch=0;points=[[0,0,0],[0.25,0,0],[0.5,0,0],[0.75,0,0],[1,0,0],[1,0.25,0],[1,0.5,0],[1,0.75,0],[1,1,0],[0.75,1,0],[0.5,1,0],[0.25,1,0],[0,1,0],[0,0.75,0],[0,0.5,0],[0,0.25,0]];rounded=1;absoluteArcSize=1;arcSize=2;html=1;strokeColor=none;gradientColor=none;shadow=0;dashed=0;fontSize=12;fontColor=#9E9E9E;align=left;verticalAlign=top;spacing=10;spacingTop=-4;fillColor=#F6F6F6;container=0;" vertex="1" parent="1">
          <mxGeometry x="630" y="-490" width="530" height="490" as="geometry" />
        </mxCell>
        <mxCell id="LT_vOoL6KCZ4grznQXuA-21" value="" style="group" vertex="1" connectable="0" parent="1">
          <mxGeometry x="30" y="-1040" width="360" height="480" as="geometry" />
        </mxCell>
        <mxCell id="LT_vOoL6KCZ4grznQXuA-17" value="" style="rounded=0;whiteSpace=wrap;html=1;dashed=1;" vertex="1" parent="LT_vOoL6KCZ4grznQXuA-21">
          <mxGeometry width="360" height="480" as="geometry" />
        </mxCell>
        <mxCell id="LT_vOoL6KCZ4grznQXuA-88" value="On Premeis" style="rounded=0;whiteSpace=wrap;html=1;shadow=1;dashed=1;labelBackgroundColor=none;fontColor=#000000;strokeColor=#000000;fillColor=none;" vertex="1" parent="LT_vOoL6KCZ4grznQXuA-21">
          <mxGeometry width="360" height="50" as="geometry" />
        </mxCell>
        <mxCell id="LT_vOoL6KCZ4grznQXuA-79" value="" style="sketch=0;aspect=fixed;pointerEvents=1;shadow=0;dashed=0;html=1;strokeColor=#b85450;labelPosition=center;verticalLabelPosition=bottom;verticalAlign=top;align=center;fillColor=#f8cecc;shape=mxgraph.mscae.enterprise.application;labelBackgroundColor=none;" vertex="1" parent="LT_vOoL6KCZ4grznQXuA-21">
          <mxGeometry x="20" y="90" width="50" height="34" as="geometry" />
        </mxCell>
        <mxCell id="LT_vOoL6KCZ4grznQXuA-109" value="" style="sketch=0;aspect=fixed;pointerEvents=1;shadow=0;dashed=0;html=1;strokeColor=#b85450;labelPosition=center;verticalLabelPosition=bottom;verticalAlign=top;align=center;fillColor=#f8cecc;shape=mxgraph.mscae.enterprise.application;labelBackgroundColor=none;" vertex="1" parent="LT_vOoL6KCZ4grznQXuA-21">
          <mxGeometry x="20" y="130" width="50" height="34" as="geometry" />
        </mxCell>
        <mxCell id="LT_vOoL6KCZ4grznQXuA-110" value="" style="sketch=0;aspect=fixed;pointerEvents=1;shadow=0;dashed=0;html=1;strokeColor=#b85450;labelPosition=center;verticalLabelPosition=bottom;verticalAlign=top;align=center;fillColor=#f8cecc;shape=mxgraph.mscae.enterprise.application;labelBackgroundColor=none;" vertex="1" parent="LT_vOoL6KCZ4grznQXuA-21">
          <mxGeometry x="20" y="170" width="50" height="34" as="geometry" />
        </mxCell>
        <mxCell id="LT_vOoL6KCZ4grznQXuA-111" value="" style="sketch=0;outlineConnect=0;fontColor=#232F3E;gradientColor=none;fillColor=#B0084D;strokeColor=none;dashed=0;verticalLabelPosition=bottom;verticalAlign=top;align=center;html=1;fontSize=12;fontStyle=0;aspect=fixed;pointerEvents=1;shape=mxgraph.aws4.topic;shadow=1;labelBackgroundColor=none;" vertex="1" parent="LT_vOoL6KCZ4grznQXuA-21">
          <mxGeometry x="280" y="280" width="58.21" height="50" as="geometry" />
        </mxCell>
        <mxCell id="LT_vOoL6KCZ4grznQXuA-119" value="Abinitio" style="rounded=0;whiteSpace=wrap;html=1;shadow=1;dashed=1;labelBackgroundColor=none;fontColor=#000000;strokeColor=default;fillColor=#99CCFF;" vertex="1" parent="LT_vOoL6KCZ4grznQXuA-21">
          <mxGeometry x="120" y="390" width="120" height="60" as="geometry" />
        </mxCell>
        <mxCell id="LT_vOoL6KCZ4grznQXuA-51" value="" style="aspect=fixed;perimeter=ellipsePerimeter;html=1;align=center;shadow=0;dashed=0;spacingTop=3;image;image=img/lib/active_directory/firewall.svg;labelBackgroundColor=none;fontColor=#000000;strokeColor=#000000;fillColor=none;" vertex="1" parent="1">
          <mxGeometry x="60" y="-1130" width="30.5" height="50" as="geometry" />
        </mxCell>
        <mxCell id="LT_vOoL6KCZ4grznQXuA-52" value="" style="strokeColor=#dddddd;shadow=1;strokeWidth=1;rounded=1;absoluteArcSize=1;arcSize=2;dashed=1;labelBackgroundColor=none;fontColor=#000000;fillColor=none;" vertex="1" parent="1">
          <mxGeometry x="380" y="-1130" width="120" height="60" as="geometry" />
        </mxCell>
        <mxCell id="LT_vOoL6KCZ4grznQXuA-53" value="Apigee&#xa;Platform" style="editableCssRules=.*;fontColor=default;shape=image;verticalLabelPosition=middle;labelBackgroundColor=#ffffff;verticalAlign=middle;labelPosition=right;align=left;spacingLeft=20;part=1;points=[];imageAspect=0;image=data:image/svg+xml,PHN2ZyB4bWxucz0iaHR0cDovL3d3dy53My5vcmcvMjAwMC9zdmciIHhtbG5zOnY9Imh0dHBzOi8vdmVjdGEuaW8vbmFubyIgd2lkdGg9IjIwLjE4MDIzMTA5NDM2MDM1IiBoZWlnaHQ9IjIwLjE4MDIwODIwNjE3Njc1OCIgdmlld0JveD0iLTAuMDAwMTE1MTY1MTIzMTMzOTIwMTMgLTAuMDAwMTAzMzQ0NDkzMjU0NTUzNTMgMjAuMTgwMjMxMDk0MzYwMzUgMjAuMTgwMjA4MjA2MTc2NzU4Ij4mI3hhOwk8c3R5bGUgdHlwZT0idGV4dC9jc3MiPiYjeGE7CS5zdDB7ZmlsbDojNjY5ZGY2O2ZpbGwtcnVsZTpldmVub2RkfSYjeGE7CS5zdDF7ZmlsbC1ydWxlOmV2ZW5vZGQ7ZmlsbDojNDI4NWY0fSYjeGE7CTwvc3R5bGU+JiN4YTsJPHBhdGggY2xhc3M9InN0MCIgZD0iTTMuMjkgMTAuMDlsMS4zMi0xLjMyLTEuNzktMS43OWEyLjk0IDIuOTQgMCAwIDEgMi4wOC01IDIuOTIgMi45MiAwIDAgMSAyLjA3Ljg2bDEuOCAxLjc5IDEuMzItMS4zNEw4LjMgMS41YTQuODEgNC44MSAwIDEgMC02LjggNi44em0xMy42IDBsLTEuMzIgMS4zMiAxLjc5IDEuOGEyLjk0IDIuOTQgMCAwIDEtNC4xNiA0LjE1bC0xLjc5LTEuNzktMS4zMiAxLjMyIDEuNzkgMS43OWE0LjgxIDQuODEgMCAxIDAgNi44LTYuOHoiLz4mI3hhOwk8cGF0aCBjbGFzcz0ic3QxIiBkPSJNNi45OCAxNy4zNmEyLjk0IDIuOTQgMCAxIDEtNC4xNi00LjE2bDEuNzktMS43OSA0LjE2IDQuMTZ6bTYuMjMtMTQuNTRhMi45MyAyLjkzIDAgMCAxIDUgMi4wOCAzIDMgMCAwIDEtLjg2IDIuMDhsLTEuNzkgMS43OS00LjE1LTQuMTZ6bS0zLjEyIDEwLjQ2YTMuMiAzLjIgMCAwIDEtMy4xOS0zLjE5aDBhMy4yMSAzLjIxIDAgMCAxIDMuMTktMy4xOWgwYTMuMjEgMy4yMSAwIDAgMSAzLjE5IDMuMTloMGEzLjIgMy4yIDAgMCAxLTMuMTkgMy4xOXptNi44LTMuMTlsMS43OS0xLjc5QTQuODEgNC44MSAwIDAgMCAxNi41NzQuMTUzIDQuODEgNC44MSAwIDAgMCAxMS44OCAxLjVsLTEuNzkgMS43OS02LjggNi44LTEuNzkgMS43OWE0LjgxIDQuODEgMCAwIDAgMi4xMDYgOC4xNDdBNC44MSA0LjgxIDAgMCAwIDguMyAxOC42OGwxLjc5LTEuNzl6Ii8+JiN4YTs8L3N2Zz4=;shadow=1;dashed=1;strokeColor=#000000;fillColor=none;" vertex="1" parent="LT_vOoL6KCZ4grznQXuA-52">
          <mxGeometry width="30" height="30" relative="1" as="geometry">
            <mxPoint x="15" y="15" as="offset" />
          </mxGeometry>
        </mxCell>
        <mxCell id="LT_vOoL6KCZ4grznQXuA-57" value="" style="strokeColor=#dddddd;shadow=1;strokeWidth=1;rounded=1;absoluteArcSize=1;arcSize=2;dashed=1;labelBackgroundColor=none;fontColor=#000000;fillColor=none;" vertex="1" parent="1">
          <mxGeometry x="380" y="-1200" width="140" height="60" as="geometry" />
        </mxCell>
        <mxCell id="LT_vOoL6KCZ4grznQXuA-58" value="Kubernetes&#xa;Engine" style="editableCssRules=.*;fontColor=#000000;shape=image;verticalLabelPosition=middle;labelBackgroundColor=#ffffff;verticalAlign=middle;labelPosition=right;align=left;spacingLeft=20;part=1;points=[];imageAspect=0;image=data:image/svg+xml,PHN2ZyB4bWxucz0iaHR0cDovL3d3dy53My5vcmcvMjAwMC9zdmciIHhtbG5zOnY9Imh0dHBzOi8vdmVjdGEuaW8vbmFubyIgd2lkdGg9IjMyOS45MjU5OTcyMzE3OTM4IiBoZWlnaHQ9IjM3OC4yODQ5OTAzMTEyNzg4IiB2aWV3Qm94PSIwIDAgODcuMjkyOTk5MjY3NTc4MTIgMTAwLjA4Nzk5NzQzNjUyMzQ0Ij4mI3hhOzxzdHlsZSB0eXBlPSJ0ZXh0L2NzcyI+JiN4YTsJLnN0MHtmaWxsOiNhZWNiZmE7fSYjeGE7CS5zdDF7ZmlsbDojNjY5ZGY2O30mI3hhOwkuc3Qye2ZpbGw6IzQyODVmNDt9JiN4YTs8L3N0eWxlPiYjeGE7CTxwYXRoIGNsYXNzPSJzdDAiIGQ9Ik00My43NTEgMEwwIDI1LjQ2NXYyLjU4OCA0Ni45Mmw0My43NTIgMjUuMTE1IDQzLjU0MS0yNS4xMjFWMjUuNDczem0yLjQzOCAxMS44NTNsMzIuMTAzIDE4Ljc4MlY2OS43N0w0My43MzkgODkuNzA1IDkgNjkuNzYyVjMwLjY0MWwzMi4xOS0xOC43MzZ2MTQuMTU0TDI0LjUwMyAzNi4xNTNsMTkuMTcyIDExLjUwMiAxOC44ODYtMTEuNTU0LTE2LjM3Mi0xMC4wMjR6Ii8+JiN4YTsJPHBhdGggY2xhc3M9InN0MSIgZD0iTTIyLjAyNSA0MC40OTZsLjE2NiAxOS4xNDMtMTMuMjQ3IDcuMzN2Mi43NDJsMi42MzcgMS41MTQgMTIuNjQ4LTYuOTk5IDE2Ljk2MSAxMC42MDJWNTEuOTkzeiIvPiYjeGE7CTxwYXRoIGNsYXNzPSJzdDIiIGQ9Ik02NS4zNDQgNDAuMjZMNDYuMTg5IDUxLjk3OXYyMi44NDdsMTYuODk5LTEwLjU3NiAxMi41MzkgNi45NzQgMi42MDktMS41MDV2LTIuNzY1bC0xMi43ODQtNy4xMTJ6Ii8+JiN4YTs8L3N2Zz4=;shadow=1;dashed=1;strokeColor=#000000;fillColor=none;" vertex="1" parent="LT_vOoL6KCZ4grznQXuA-57">
          <mxGeometry width="26" height="30" relative="1" as="geometry">
            <mxPoint x="17" y="15" as="offset" />
          </mxGeometry>
        </mxCell>
        <mxCell id="LT_vOoL6KCZ4grznQXuA-59" value="" style="strokeColor=#dddddd;shadow=1;strokeWidth=1;rounded=1;absoluteArcSize=1;arcSize=2;dashed=1;labelBackgroundColor=none;fontColor=#000000;fillColor=none;" vertex="1" parent="1">
          <mxGeometry x="530" y="-1200" width="110" height="60" as="geometry" />
        </mxCell>
        <mxCell id="LT_vOoL6KCZ4grznQXuA-60" value="Cloud&#xa;IAM" style="editableCssRules=.*;fontColor=#000000;shape=image;verticalLabelPosition=middle;labelBackgroundColor=#ffffff;verticalAlign=middle;labelPosition=right;align=left;spacingLeft=20;part=1;points=[];imageAspect=0;image=data:image/svg+xml,PHN2ZyB4bWxucz0iaHR0cDovL3d3dy53My5vcmcvMjAwMC9zdmciIHhtbG5zOnY9Imh0dHBzOi8vdmVjdGEuaW8vbmFubyIgd2lkdGg9IjE2LjQyMDAwMDA3NjI5Mzk0NSIgaGVpZ2h0PSIyMC4wNDk5OTkyMzcwNjA1NDciIGZpbGwtcnVsZT0iZXZlbm9kZCIgdmlld0JveD0iMCAwIDE2LjQyMDAwMDA3NjI5Mzk0NSAyMC4wNDk5OTkyMzcwNjA1NDciPiYjeGE7CTxzdHlsZSB0eXBlPSJ0ZXh0L2NzcyI+JiN4YTsJLnN0MHtmaWxsOiM0Mjg1ZjQ7fSYjeGE7CS5zdDF7ZmlsbDojNjY5ZGY2O30mI3hhOwk8L3N0eWxlPiYjeGE7CTxwYXRoIGNsYXNzPSJzdDEiIGQ9Ik04LjIxIDBMMCAzLjQydjUuNjNjMCA1LjA2IDMuNSA5LjggOC4yMSAxMSA0LjcxLTEuMTUgOC4yMS01Ljg5IDguMjEtMTAuOTVWMy40MnptMCAzLjc5YTIuNjMgMi42MyAwIDAgMSAxLjAwNSA1LjA2QTIuNjMgMi42MyAwIDAgMSA2LjM1IDQuNTZhMi42MyAyLjYzIDAgMCAxIDEuODYtLjc3em00LjExIDExLjE1YTguNjQgOC42NCAwIDAgMS00LjExIDIuOTMgOC42NCA4LjY0IDAgMCAxLTQuMTEtMi45M3YtMi4yNWMwLTEuNjcgMi43NC0yLjUyIDQuMTEtMi41MnM0LjExLjg1IDQuMTEgMi41MnoiLz4mI3hhOwk8cGF0aCBjbGFzcz0ic3QwIiBkPSJNOC4yMSAwdjMuNzlhMi42MyAyLjYzIDAgMSAxIDAgNS4yNnYxLjEyYzEuMzcgMCA0LjExLjg1IDQuMTEgMi41MnYyLjI1YTguNjQgOC42NCAwIDAgMS00LjExIDIuOTNWMjBjNC43MS0xLjE1IDguMjEtNS44OSA4LjIxLTEwLjk1VjMuNDJ6Ii8+JiN4YTs8L3N2Zz4=;shadow=1;dashed=1;strokeColor=#000000;fillColor=none;" vertex="1" parent="LT_vOoL6KCZ4grznQXuA-59">
          <mxGeometry width="24" height="30" relative="1" as="geometry">
            <mxPoint x="18" y="15" as="offset" />
          </mxGeometry>
        </mxCell>
        <mxCell id="LT_vOoL6KCZ4grznQXuA-63" value="" style="strokeColor=#dddddd;shadow=1;strokeWidth=1;rounded=1;absoluteArcSize=1;arcSize=2;dashed=1;labelBackgroundColor=none;fontColor=#000000;fillColor=none;" vertex="1" parent="1">
          <mxGeometry x="510" y="-1130" width="150" height="60" as="geometry" />
        </mxCell>
        <mxCell id="LT_vOoL6KCZ4grznQXuA-64" value="Virtual&#xa;Private Cloud" style="editableCssRules=.*;fontColor=#000000;shape=image;verticalLabelPosition=middle;labelBackgroundColor=#ffffff;verticalAlign=middle;labelPosition=right;align=left;spacingLeft=20;part=1;points=[];imageAspect=0;image=data:image/svg+xml,PHN2ZyB4bWxucz0iaHR0cDovL3d3dy53My5vcmcvMjAwMC9zdmciIHhtbG5zOnY9Imh0dHBzOi8vdmVjdGEuaW8vbmFubyIgd2lkdGg9IjIwIiBoZWlnaHQ9IjIwIiB2aWV3Qm94PSIwIDAgMjAgMjAiPiYjeGE7CTxzdHlsZSB0eXBlPSJ0ZXh0L2NzcyI+JiN4YTsJLnN0MHtmaWxsOiM0Mjg1ZjQ7fSYjeGE7CS5zdDF7ZmlsbDojNjY5ZGY2O30mI3hhOwkuc3Qye2ZpbGw6I2FlY2JmYTt9JiN4YTsJPC9zdHlsZT4mI3hhOwk8cGF0aCBjbGFzcz0ic3QyIiBkPSJNMTQgMGg2djZoLTZ6Ii8+JiN4YTsJPHBhdGggY2xhc3M9InN0MSIgZD0iTTE3IDBoM3Y2aC0zeiIvPiYjeGE7CTxwYXRoIGNsYXNzPSJzdDIiIGQ9Ik0xNCAxNGg2djZoLTZ6Ii8+JiN4YTsJPHBhdGggY2xhc3M9InN0MSIgZD0iTTE3IDE0aDN2NmgtM3oiLz4mI3hhOwk8cGF0aCBjbGFzcz0ic3QyIiBkPSJNMCAwaDZ2NkgweiIvPiYjeGE7CTxwYXRoIGNsYXNzPSJzdDEiIGQ9Ik0zIDBoM3Y2SDN6Ii8+JiN4YTsJPHBhdGggY2xhc3M9InN0MiIgZD0iTTAgMTRoNnY2SDB6Ii8+JiN4YTsJPGcgY2xhc3M9InN0MSI+JiN4YTsJCTxwYXRoIGQ9Ik0zIDE0aDN2Nkgzek02IDJoOHYySDZ6Ii8+JiN4YTsJCTxwYXRoIGQ9Ik02IDE2aDh2Mkg2ek0xNiA2aDJ2OGgtMnpNMiA2aDJ2OEgyeiIvPiYjeGE7CTwvZz4mI3hhOwk8cGF0aCBjbGFzcz0ic3QwIiBkPSJNMiA2aDJ2Mkgyem0xNCAwaDJ2MmgtMnpNNiAyaDJ2Mkg2em0wIDE0aDJ2Mkg2eiIvPiYjeGE7PC9zdmc+;shadow=1;dashed=1;strokeColor=#000000;fillColor=none;" vertex="1" parent="LT_vOoL6KCZ4grznQXuA-63">
          <mxGeometry width="30" height="30" relative="1" as="geometry">
            <mxPoint x="15" y="15" as="offset" />
          </mxGeometry>
        </mxCell>
        <mxCell id="LT_vOoL6KCZ4grznQXuA-67" value="" style="strokeColor=#dddddd;shadow=1;strokeWidth=1;rounded=1;absoluteArcSize=1;arcSize=2;dashed=1;labelBackgroundColor=none;fontColor=#000000;fillColor=none;" vertex="1" parent="1">
          <mxGeometry x="670" y="-1130" width="130" height="60" as="geometry" />
        </mxCell>
        <mxCell id="LT_vOoL6KCZ4grznQXuA-68" value="&lt;font color=&quot;#000000&quot;&gt;Kubernetes&lt;/font&gt;" style="sketch=0;dashed=0;connectable=0;html=1;fillColor=#5184F3;strokeColor=none;shape=mxgraph.gcp2.kubernetes_logo;part=1;labelPosition=right;verticalLabelPosition=middle;align=left;verticalAlign=middle;spacingLeft=5;fontColor=#999999;fontSize=12;shadow=1;labelBackgroundColor=none;" vertex="1" parent="LT_vOoL6KCZ4grznQXuA-67">
          <mxGeometry width="45" height="43.65" relative="1" as="geometry">
            <mxPoint x="5" y="7.675000000000001" as="offset" />
          </mxGeometry>
        </mxCell>
        <mxCell id="LT_vOoL6KCZ4grznQXuA-49" value="" style="strokeColor=#dddddd;shadow=1;strokeWidth=1;rounded=1;absoluteArcSize=1;arcSize=2;dashed=1;labelBackgroundColor=none;fontColor=#000000;fillColor=none;" vertex="1" parent="1">
          <mxGeometry x="650" y="-1200" width="150" height="60" as="geometry" />
        </mxCell>
        <mxCell id="LT_vOoL6KCZ4grznQXuA-50" value="Cloud&#xa;Firewall Rules" style="editableCssRules=.*;fontColor=#000000;shape=image;verticalLabelPosition=middle;labelBackgroundColor=#ffffff;verticalAlign=middle;labelPosition=right;align=left;spacingLeft=20;part=1;points=[];imageAspect=0;image=data:image/svg+xml,PHN2ZyB4bWxucz0iaHR0cDovL3d3dy53My5vcmcvMjAwMC9zdmciIHhtbG5zOnY9Imh0dHBzOi8vdmVjdGEuaW8vbmFubyIgd2lkdGg9IjIwIiBoZWlnaHQ9IjIwIiBmaWxsPSIjNDI4NWY0IiB2aWV3Qm94PSIwIDAgMjAgMjAiPiYjeGE7CTxzdHlsZSB0eXBlPSJ0ZXh0L2NzcyI+JiN4YTsJLnN0MHtmaWxsOiM0Mjg1ZjQ7fSYjeGE7CTwvc3R5bGU+JiN4YTsJPHBhdGggY2xhc3M9InN0MCIgZD0iTTAgMGg4Ljg5djIuMjJIMHptMCAxNy43OGg4Ljg5VjIwSDB6bTAtOC44OWg4Ljg5djIuMjJIMHpNMTEuMTEgMEgyMHYyLjIyaC04Ljg5em0wIDE3Ljc4SDIwVjIwaC04Ljg5em0wLTguODlIMjB2Mi4yMmgtOC44OXpNNS41NSA0LjQ0aDguODl2Mi4yMkg1LjU1em0wIDguODloOC44OXYyLjIySDUuNTV6TTAgNC40NGgzLjMzdjIuMjJIMHptMCA4Ljg5aDMuMzN2Mi4yMkgwem0xNi42Ny04Ljg5SDIwdjIuMjJoLTMuMzN6bTAgOC44OUgyMHYyLjIyaC0zLjMzeiIvPiYjeGE7PC9zdmc+;shadow=1;dashed=1;strokeColor=#000000;fillColor=none;" vertex="1" parent="LT_vOoL6KCZ4grznQXuA-49">
          <mxGeometry width="30" height="30" relative="1" as="geometry">
            <mxPoint x="15" y="15" as="offset" />
          </mxGeometry>
        </mxCell>
        <mxCell id="LT_vOoL6KCZ4grznQXuA-36" value="" style="strokeColor=#dddddd;shadow=1;strokeWidth=1;rounded=1;absoluteArcSize=1;arcSize=2;dashed=1;fillColor=none;" vertex="1" parent="1">
          <mxGeometry x="810" y="-1200" width="120" height="60" as="geometry" />
        </mxCell>
        <mxCell id="LT_vOoL6KCZ4grznQXuA-37" value="Dataproc" style="editableCssRules=.*;fontColor=#000000;shape=image;verticalLabelPosition=middle;labelBackgroundColor=#ffffff;verticalAlign=middle;labelPosition=right;align=left;spacingLeft=20;part=1;points=[];imageAspect=0;image=data:image/svg+xml,PHN2ZyB4bWxucz0iaHR0cDovL3d3dy53My5vcmcvMjAwMC9zdmciIHhtbG5zOnY9Imh0dHBzOi8vdmVjdGEuaW8vbmFubyIgd2lkdGg9IjE5LjM2MzAxMjMxMzg0Mjc3MyIgaGVpZ2h0PSIxNy45NzU1MjY4MDk2OTIzODMiIHZpZXdCb3g9IjAuMDAwNTYwMDI1NjI2MzI3ODQyNSAwLjYxOTYyOTc0MDcxNTAyNjkgMTkuMzYzMDEyMzEzODQyNzczIDE3Ljk3NTUyNjgwOTY5MjM4MyI+JiN4YTsJPHN0eWxlIHR5cGU9InRleHQvY3NzIj4mI3hhOwkuc3Qwe2ZpbGwtcnVsZTpldmVub2RkO30mI3hhOwkuc3Qxe2ZpbGw6I2FlY2JmYTt9JiN4YTsJLnN0MntmaWxsOiM0Mjg1ZjQ7fSYjeGE7CS5zdDN7ZmlsbDojNjY5ZGY2O30mI3hhOwk8L3N0eWxlPiYjeGE7CTxnIGNsYXNzPSJzdDAgc3QxIj4mI3hhOwkJPHBhdGggZD0iTTQuNjkgMTYuNGwxMC4xOS01Ljg5Ljk3IDEuNjktMTAuMTggNS44OHoiLz4mI3hhOwkJPHBhdGggZD0iTTcuNSA0LjR2MTAuMzVsLTEuODcgMS40MVY0LjR6Ii8+JiN4YTsJCTxwYXRoIGQ9Ik0xNy40OSAxMS4ybC0uOTcgMS42OC04Ljk2LTUuMTktLjI2LTIuMzZ6Ii8+JiN4YTsJPC9nPiYjeGE7CTxwYXRoIGNsYXNzPSJzdDAgc3QyIiBkPSJNMTIuMzkgOC4yNkw3LjMgNS4zM2wuMjYgMi4zNiAxLjUxLjg2YTQgNCAwIDAgMCAzLjMyLS4yOXoiLz4mI3hhOwk8cGF0aCBjbGFzcz0ic3QwIHN0MSIgZD0iTTYuMTMgNi4yOWgwYTMuNzggMy43OCAwIDAgMSA1LjE2NS01LjE2M0EzLjc4IDMuNzggMCAwIDEgOS40IDguMThhMy44IDMuOCAwIDAgMS0zLjI3LTEuODl6TTExIDMuNDlhMS44NCAxLjg0IDAgMCAwLTEuNTktLjkyQTEuODMgMS44MyAwIDAgMCA3LjU3IDQuNGExLjg0IDEuODQgMCAwIDAgMi43OTQgMS43MDZBMS44NCAxLjg0IDAgMCAwIDExLjI0IDQuNGExLjggMS44IDAgMCAwLS4yNC0uOTF6Ii8+JiN4YTsJPHBhdGggY2xhc3M9InN0MCBzdDIiIGQ9Ik01LjYzIDEwLjk0djUuMjJsMS44Ny0xLjQxdi0xLjYzYTMuMjkgMy4yOSAwIDAgMC0xLjg3LTIuMTh6bTUuNyAzLjg3bDQuNTItMi42MS0yLjIxLTEtMS4yNS44YTQuMjMgNC4yMyAwIDAgMC0xLjA2IDIuODZ6Ii8+JiN4YTsJPHBhdGggY2xhc3M9InN0MCBzdDEiIGQ9Ik0uNTEgMTYuN2gwYTMuNzcgMy43NyAwIDAgMSAxLjM4LTUuMTYgMy43MiAzLjcyIDAgMCAxIDIuODYtLjM4QTMuNzggMy43OCAwIDEgMSAuNTEgMTYuN3ptNC44NS0yLjgxQTEuNzkgMS43OSAwIDAgMCA0LjI1IDEzYTEuODMgMS44MyAwIDAgMC0yLjA2IDIuNjloMGMuMzI5LjU2Ni45MzQuOTE0IDEuNTg5LjkxM2ExLjgzIDEuODMgMCAwIDAgMS41ODUtLjkyYy4zMjYtLjU2OC4zMjQtMS4yNjctLjAwNC0xLjgzM3ptNi45NyAyLjQ3aDBhMy43OSAzLjc5IDAgMCAxIDAtMy43NyAzLjc5IDMuNzkgMCAwIDEgNS4xNi0xLjM5IDMuNzggMy43OCAwIDAgMS0xLjg5IDcuMDQ0IDMuNzggMy43OCAwIDAgMS0zLjI3LTEuODg0em00Ljg2LTIuODFhMiAyIDAgMCAwLS42Ny0uNjcgMS44NSAxLjg1IDAgMCAwLTIuNTEuNjggMS44NiAxLjg2IDAgMCAwIDAgMS44MyAxLjgzIDEuODMgMCAwIDAgMi4wNy44NSAxLjgyIDEuODIgMCAwIDAgMS4xMS0uODUgMS44OCAxLjg4IDAgMCAwIDAtMS44NHoiLz4mI3hhOwk8cGF0aCBjbGFzcz0ic3QwIHN0MyIgZD0iTTcuNDkgMTQuMTVsLTIuOCAyLjI1IDIuODYtMS42NWE0LjA3IDQuMDcgMCAwIDAtLjA2LS42ek04LjE1IDhsLS41OS0zLjZ2My4yOWEzLjQ3IDMuNDcgMCAwIDAgLjU5LjI3em01LjE1IDMuNDdsMy4yMiAxLjQxLTIuODYtMS42NGExLjY5IDEuNjkgMCAwIDAtLjM2LjIzeiIvPiYjeGE7PC9zdmc+;shadow=1;dashed=1;fillColor=none;" vertex="1" parent="LT_vOoL6KCZ4grznQXuA-36">
          <mxGeometry width="30" height="28" relative="1" as="geometry">
            <mxPoint x="15" y="16" as="offset" />
          </mxGeometry>
        </mxCell>
        <mxCell id="LT_vOoL6KCZ4grznQXuA-47" value="" style="strokeColor=#dddddd;shadow=1;strokeWidth=1;rounded=1;absoluteArcSize=1;arcSize=2;dashed=1;labelBackgroundColor=none;fontColor=#000000;fillColor=none;" vertex="1" parent="1">
          <mxGeometry x="250" y="-1200" width="120" height="60" as="geometry" />
        </mxCell>
        <mxCell id="LT_vOoL6KCZ4grznQXuA-48" value="Pub/Sub" style="editableCssRules=.*;fontColor=#000000;shape=image;verticalLabelPosition=middle;labelBackgroundColor=#ffffff;verticalAlign=middle;labelPosition=right;align=left;spacingLeft=20;part=1;points=[];imageAspect=0;image=data:image/svg+xml,PHN2ZyB4bWxucz0iaHR0cDovL3d3dy53My5vcmcvMjAwMC9zdmciIHhtbG5zOnY9Imh0dHBzOi8vdmVjdGEuaW8vbmFubyIgd2lkdGg9IjE4LjMxOTk5OTY5NDgyNDIyIiBoZWlnaHQ9IjIwLjAwMDAwMTkwNzM0ODYzMyIgdmlld0JveD0iMCAwIDE4LjMxOTk5OTY5NDgyNDIyIDIwLjAwMDAwMTkwNzM0ODYzMyI+JiN4YTsJPHN0eWxlIHR5cGU9InRleHQvY3NzIj4mI3hhOwkuc3Qwe2ZpbGw6IzY2OWRmNjt9JiN4YTsJLnN0MXtmaWxsOiM0Mjg1ZjQ7fSYjeGE7CS5zdDJ7ZmlsbDojYWVjYmZhO30mI3hhOwk8L3N0eWxlPiYjeGE7CTxkZWZzPiYjeGE7CQk8ZmlsdGVyIGlkPSJBIiB4PSI0LjY0IiB5PSI0LjE5IiB3aWR0aD0iMTQuNzMiIGhlaWdodD0iMTIuNzYiIGZpbHRlclVuaXRzPSJ1c2VyU3BhY2VPblVzZSIgY29sb3ItaW50ZXJwb2xhdGlvbi1maWx0ZXJzPSJzUkdCIj4mI3hhOwkJCTxmZUZsb29kIGZsb29kLWNvbG9yPSIjZmZmIi8+JiN4YTsJCQk8ZmVCbGVuZCBpbj0iU291cmNlR3JhcGhpYyIvPiYjeGE7CQk8L2ZpbHRlcj4mI3hhOwkJPG1hc2sgaWQ9IkIiIHg9IjQuNjQiIHk9IjQuMTkiIHdpZHRoPSIxNC43MyIgaGVpZ2h0PSIxMi43NiIgbWFza1VuaXRzPSJ1c2VyU3BhY2VPblVzZSI+JiN4YTsJCQk8Y2lyY2xlIGN4PSIxMiIgY3k9IjEyLjIzIiByPSIzLjU4IiBmaWx0ZXI9InVybCgjQSkiLz4mI3hhOwkJPC9tYXNrPiYjeGE7CTwvZGVmcz4mI3hhOwk8ZyBjbGFzcz0ic3QwIj4mI3hhOwkJPGNpcmNsZSBjeD0iMTYuMTMiIGN5PSI2LjIxIiByPSIxLjcyIi8+JiN4YTsJCTxjaXJjbGUgY3g9IjIuMTkiIGN5PSI2LjIxIiByPSIxLjcyIi8+JiN4YTsJCTxjaXJjbGUgY3g9IjkuMTYiIGN5PSIxOC4yOCIgcj0iMS43MiIvPiYjeGE7CTwvZz4mI3hhOwk8ZyBtYXNrPSJ1cmwoI0IpIiB0cmFuc2Zvcm09InRyYW5zbGF0ZSgtMi44NCAtMikiPiYjeGE7CQk8cGF0aCB0cmFuc2Zvcm09Im1hdHJpeCguNSAtLjg3IC44NyAuNSAtNC41OSAyMC41MykiIGQ9Ik0xNC42OSAxMC4yMmgxLjU5djguMDRoLTEuNTl6IiBjbGFzcz0ic3QxIi8+JiN4YTsJCTxwYXRoIHRyYW5zZm9ybT0icm90YXRlKDMzMCA4LjUyMyAxNC4yNDQpIiBkPSJNNC40OSAxMy40NWg4LjA0djEuNTlINC40OXoiIGNsYXNzPSJzdDEiLz4mI3hhOwkJPHBhdGggZD0iTTExLjIgNC4xOWgxLjU5djguMDRIMTEuMnoiIGNsYXNzPSJzdDEiLz4mI3hhOwk8L2c+JiN4YTsJPGcgY2xhc3M9InN0MiI+JiN4YTsJCTxjaXJjbGUgY3g9IjkuMTYiIGN5PSIxMC4yMyIgcj0iMi43OCIvPiYjeGE7CQk8Y2lyY2xlIGN4PSIyLjE5IiBjeT0iMTQuMjUiIHI9IjIuMTkiLz4mI3hhOwkJPGNpcmNsZSBjeD0iMTYuMTMiIGN5PSIxNC4yNSIgcj0iMi4xOSIvPiYjeGE7CQk8Y2lyY2xlIGN4PSI5LjE2IiBjeT0iMi4xOSIgcj0iMi4xOSIvPiYjeGE7CTwvZz4mI3hhOzwvc3ZnPg==;shadow=1;dashed=1;strokeColor=#000000;fillColor=none;" vertex="1" parent="LT_vOoL6KCZ4grznQXuA-47">
          <mxGeometry width="27" height="30" relative="1" as="geometry">
            <mxPoint x="16" y="15" as="offset" />
          </mxGeometry>
        </mxCell>
        <mxCell id="LT_vOoL6KCZ4grznQXuA-43" value="" style="strokeColor=#dddddd;shadow=1;strokeWidth=1;rounded=1;absoluteArcSize=1;arcSize=2;dashed=1;fontColor=default;fillColor=none;" vertex="1" parent="1">
          <mxGeometry x="810" y="-1130" width="130" height="60" as="geometry" />
        </mxCell>
        <mxCell id="LT_vOoL6KCZ4grznQXuA-44" value="BigQuery" style="editableCssRules=.*;fontColor=#000000;shape=image;verticalLabelPosition=middle;labelBackgroundColor=#ffffff;verticalAlign=middle;labelPosition=right;align=left;spacingLeft=20;part=1;points=[];imageAspect=0;image=data:image/svg+xml,PHN2ZyB4bWxucz0iaHR0cDovL3d3dy53My5vcmcvMjAwMC9zdmciIHhtbG5zOnY9Imh0dHBzOi8vdmVjdGEuaW8vbmFubyIgd2lkdGg9IjIwLjAwMTA0NTIyNzA1MDc4IiBoZWlnaHQ9IjIwLjAwMTA0NTIyNzA1MDc4IiBmaWxsLXJ1bGU9ImV2ZW5vZGQiIHZpZXdCb3g9IjAgMCAyMC4wMDEwNDUyMjcwNTA3OCAyMC4wMDEwNDUyMjcwNTA3OCI+JiN4YTsJPHN0eWxlIHR5cGU9InRleHQvY3NzIj4mI3hhOwkuc3Qwe2ZpbGw6I2FlY2JmYTt9JiN4YTsJLnN0MXtmaWxsOiM2NjlkZjY7fSYjeGE7CS5zdDJ7ZmlsbDojNDI4NWY0O30mI3hhOwk8L3N0eWxlPiYjeGE7CTxwYXRoIGNsYXNzPSJzdDAiIGQ9Ik00LjczIDguODN2Mi42M2E0LjkxIDQuOTEgMCAwIDAgMS43MSAxLjc0VjguODN6Ii8+JiN4YTsJPHBhdGggY2xhc3M9InN0MSIgZD0iTTcuODkgNi40MXY3LjUzQTcuNjIgNy42MiAwIDAgMCA5IDE0YTggOCAwIDAgMCAxIDBWNi40MXoiLz4mI3hhOwk8cGF0aCBjbGFzcz0ic3QwIiBkPSJNMTEuNjQgOS44NnYzLjI5YTUgNSAwIDAgMCAxLjctMS44MlY5Ljg2eiIvPiYjeGE7CTxwYXRoIGNsYXNzPSJzdDIiIGQ9Ik0xNS43NCAxNC4zMmwtMS40MiAxLjQyYS40Mi40MiAwIDAgMCAwIC42bDMuNTQgMy41NGEuNDIuNDIgMCAwIDAgLjU5IDBsMS40My0xLjQzYS40Mi40MiAwIDAgMCAwLS41OWwtMy41NC0zLjU0YS40Mi40MiAwIDAgMC0uNiAwIi8+JiN4YTsJPHBhdGggY2xhc3M9InN0MSIgZD0iTTkgMGE5IDkgMCAxIDAgMCAxOEE5IDkgMCAxIDAgOSAwbTAgMTUuNjlhNi42OCA2LjY4IDAgMCAxIC4wMDctMTMuMzYgNi42OCA2LjY4IDAgMCAxIDQuNzI3IDExLjQwM0E2LjY4IDYuNjggMCAwIDEgOSAxNS42OSIvPiYjeGE7PC9zdmc+;shadow=1;dashed=1;fillColor=none;" vertex="1" parent="LT_vOoL6KCZ4grznQXuA-43">
          <mxGeometry width="30" height="30" relative="1" as="geometry">
            <mxPoint x="15" y="15" as="offset" />
          </mxGeometry>
        </mxCell>
        <mxCell id="LT_vOoL6KCZ4grznQXuA-69" value="&lt;b&gt;Google &lt;/b&gt;Cloud Platform" style="fillColor=#F6F6F6;strokeColor=none;shadow=0;gradientColor=none;fontSize=14;align=left;spacing=10;fontColor=#717171;9E9E9E;verticalAlign=top;spacingTop=-4;fontStyle=0;spacingLeft=40;html=1;dashed=1;labelBackgroundColor=none;" vertex="1" parent="1">
          <mxGeometry x="550" y="-1030" width="570" height="480" as="geometry" />
        </mxCell>
        <mxCell id="LT_vOoL6KCZ4grznQXuA-70" value="" style="shape=mxgraph.gcp2.google_cloud_platform;fillColor=#F6F6F6;strokeColor=none;shadow=0;gradientColor=none;dashed=1;labelBackgroundColor=none;fontColor=#000000;" vertex="1" parent="LT_vOoL6KCZ4grznQXuA-69">
          <mxGeometry width="23" height="20" relative="1" as="geometry">
            <mxPoint x="20" y="10" as="offset" />
          </mxGeometry>
        </mxCell>
        <mxCell id="LT_vOoL6KCZ4grznQXuA-45" value="" style="strokeColor=#dddddd;shadow=1;strokeWidth=1;rounded=1;absoluteArcSize=1;arcSize=2;dashed=1;fontColor=#000000;fillColor=none;" vertex="1" parent="LT_vOoL6KCZ4grznQXuA-69">
          <mxGeometry x="30" y="376" width="190" height="70" as="geometry" />
        </mxCell>
        <mxCell id="LT_vOoL6KCZ4grznQXuA-46" value="Cloud&#xa;Storage" style="editableCssRules=.*;fontColor=#000000;shape=image;verticalLabelPosition=middle;labelBackgroundColor=none;verticalAlign=middle;labelPosition=right;align=left;spacingLeft=20;part=1;points=[];imageAspect=0;image=data:image/svg+xml,PHN2ZyB4bWxucz0iaHR0cDovL3d3dy53My5vcmcvMjAwMC9zdmciIHhtbG5zOnY9Imh0dHBzOi8vdmVjdGEuaW8vbmFubyIgd2lkdGg9IjIwIiBoZWlnaHQ9IjE2IiB2aWV3Qm94PSIwIDAgMjAgMTYiPiYjeGE7CTxzdHlsZSB0eXBlPSJ0ZXh0L2NzcyI+JiN4YTsJLnN0MHtmaWxsOiM0Mjg1ZjQ7fSYjeGE7CS5zdDF7ZmlsbDojNjY5ZGY2O30mI3hhOwkuc3Qye2ZpbGw6I2FlY2JmYTt9JiN4YTsJLnN0M3tmaWxsOiNmZmY7fSYjeGE7CTwvc3R5bGU+JiN4YTsJPHBhdGggY2xhc3M9InN0MiIgZD0iTTAgMGgyMHY3SDB6Ii8+JiN4YTsJPHBhdGggY2xhc3M9InN0MSIgZD0iTTE4IDBoMnY3aC0yeiIvPiYjeGE7CTxwYXRoIGNsYXNzPSJzdDAiIGQ9Ik0xOCA3bDItN2gtMnoiLz4mI3hhOwk8cGF0aCBjbGFzcz0ic3QxIiBkPSJNMCAwaDJ2N0gweiIvPiYjeGE7CTxnIGNsYXNzPSJzdDMiPiYjeGE7CQk8cGF0aCBkPSJNNCAzaDZ2MUg0eiIvPiYjeGE7CQk8cmVjdCB4PSIxMyIgeT0iMiIgd2lkdGg9IjMiIGhlaWdodD0iMyIgcng9IjEuNSIvPiYjeGE7CTwvZz4mI3hhOwk8cGF0aCBjbGFzcz0ic3QyIiBkPSJNMCA5aDIwdjdIMHoiLz4mI3hhOwk8cGF0aCBjbGFzcz0ic3QxIiBkPSJNMTggOWgydjdoLTJ6Ii8+JiN4YTsJPHBhdGggY2xhc3M9InN0MCIgZD0iTTE4IDE2bDItN2gtMnoiLz4mI3hhOwk8cGF0aCBjbGFzcz0ic3QxIiBkPSJNMCA5aDJ2N0gweiIvPiYjeGE7CTxnIGNsYXNzPSJzdDMiPiYjeGE7CQk8cGF0aCBkPSJNNCAxMmg2djFINHoiLz4mI3hhOwkJPHJlY3QgeD0iMTMiIHk9IjExIiB3aWR0aD0iMyIgaGVpZ2h0PSIzIiByeD0iMS41Ii8+JiN4YTsJPC9nPiYjeGE7PC9zdmc+;shadow=1;dashed=1;strokeColor=#000000;fillColor=none;" vertex="1" parent="LT_vOoL6KCZ4grznQXuA-45">
          <mxGeometry width="30" height="24" relative="1" as="geometry">
            <mxPoint x="15" y="18" as="offset" />
          </mxGeometry>
        </mxCell>
        <mxCell id="LT_vOoL6KCZ4grznQXuA-113" value="&lt;font color=&quot;#000000&quot;&gt;SubNetwork&lt;/font&gt;" style="sketch=0;points=[[0,0,0],[0.25,0,0],[0.5,0,0],[0.75,0,0],[1,0,0],[1,0.25,0],[1,0.5,0],[1,0.75,0],[1,1,0],[0.75,1,0],[0.5,1,0],[0.25,1,0],[0,1,0],[0,0.75,0],[0,0.5,0],[0,0.25,0]];rounded=1;absoluteArcSize=1;arcSize=2;html=1;strokeColor=none;gradientColor=none;shadow=0;dashed=0;fontSize=12;fontColor=#9E9E9E;align=left;verticalAlign=top;spacing=10;spacingTop=-4;fillColor=#EDE7F6;" vertex="1" parent="LT_vOoL6KCZ4grznQXuA-69">
          <mxGeometry x="130" y="60" width="200" height="200" as="geometry" />
        </mxCell>
        <mxCell id="LT_vOoL6KCZ4grznQXuA-114" value="" style="strokeColor=#dddddd;shadow=1;strokeWidth=1;rounded=1;absoluteArcSize=1;arcSize=2;dashed=1;labelBackgroundColor=none;fontColor=#000000;fillColor=default;" vertex="1" parent="LT_vOoL6KCZ4grznQXuA-69">
          <mxGeometry x="150" y="90" width="150" height="60" as="geometry" />
        </mxCell>
        <mxCell id="LT_vOoL6KCZ4grznQXuA-115" value="&lt;font color=&quot;#000000&quot;&gt;Kubernetes&lt;/font&gt;" style="sketch=0;dashed=0;connectable=0;html=1;fillColor=#5184F3;strokeColor=none;shape=mxgraph.gcp2.kubernetes_logo;part=1;labelPosition=right;verticalLabelPosition=middle;align=left;verticalAlign=middle;spacingLeft=5;fontColor=#999999;fontSize=12;shadow=1;labelBackgroundColor=none;" vertex="1" parent="LT_vOoL6KCZ4grznQXuA-114">
          <mxGeometry width="45" height="43.65" relative="1" as="geometry">
            <mxPoint x="5" y="7.675000000000001" as="offset" />
          </mxGeometry>
        </mxCell>
        <mxCell id="LT_vOoL6KCZ4grznQXuA-124" style="edgeStyle=orthogonalEdgeStyle;rounded=0;orthogonalLoop=1;jettySize=auto;html=1;entryX=0.25;entryY=0;entryDx=0;entryDy=0;fontColor=#000000;" edge="1" parent="LT_vOoL6KCZ4grznQXuA-69" source="LT_vOoL6KCZ4grznQXuA-116" target="LT_vOoL6KCZ4grznQXuA-122">
          <mxGeometry relative="1" as="geometry" />
        </mxCell>
        <mxCell id="LT_vOoL6KCZ4grznQXuA-116" value="" style="strokeColor=#dddddd;shadow=1;strokeWidth=1;rounded=1;absoluteArcSize=1;arcSize=2;dashed=1;fillColor=default;labelBackgroundColor=#FFFFFF;" vertex="1" parent="LT_vOoL6KCZ4grznQXuA-69">
          <mxGeometry x="150" y="180" width="150" height="60" as="geometry" />
        </mxCell>
        <mxCell id="LT_vOoL6KCZ4grznQXuA-117" value="Dataproc" style="editableCssRules=.*;fontColor=#000000;shape=image;verticalLabelPosition=middle;labelBackgroundColor=#ffffff;verticalAlign=middle;labelPosition=right;align=left;spacingLeft=20;part=1;points=[];imageAspect=0;image=data:image/svg+xml,PHN2ZyB4bWxucz0iaHR0cDovL3d3dy53My5vcmcvMjAwMC9zdmciIHhtbG5zOnY9Imh0dHBzOi8vdmVjdGEuaW8vbmFubyIgd2lkdGg9IjE5LjM2MzAxMjMxMzg0Mjc3MyIgaGVpZ2h0PSIxNy45NzU1MjY4MDk2OTIzODMiIHZpZXdCb3g9IjAuMDAwNTYwMDI1NjI2MzI3ODQyNSAwLjYxOTYyOTc0MDcxNTAyNjkgMTkuMzYzMDEyMzEzODQyNzczIDE3Ljk3NTUyNjgwOTY5MjM4MyI+JiN4YTsJPHN0eWxlIHR5cGU9InRleHQvY3NzIj4mI3hhOwkuc3Qwe2ZpbGwtcnVsZTpldmVub2RkO30mI3hhOwkuc3Qxe2ZpbGw6I2FlY2JmYTt9JiN4YTsJLnN0MntmaWxsOiM0Mjg1ZjQ7fSYjeGE7CS5zdDN7ZmlsbDojNjY5ZGY2O30mI3hhOwk8L3N0eWxlPiYjeGE7CTxnIGNsYXNzPSJzdDAgc3QxIj4mI3hhOwkJPHBhdGggZD0iTTQuNjkgMTYuNGwxMC4xOS01Ljg5Ljk3IDEuNjktMTAuMTggNS44OHoiLz4mI3hhOwkJPHBhdGggZD0iTTcuNSA0LjR2MTAuMzVsLTEuODcgMS40MVY0LjR6Ii8+JiN4YTsJCTxwYXRoIGQ9Ik0xNy40OSAxMS4ybC0uOTcgMS42OC04Ljk2LTUuMTktLjI2LTIuMzZ6Ii8+JiN4YTsJPC9nPiYjeGE7CTxwYXRoIGNsYXNzPSJzdDAgc3QyIiBkPSJNMTIuMzkgOC4yNkw3LjMgNS4zM2wuMjYgMi4zNiAxLjUxLjg2YTQgNCAwIDAgMCAzLjMyLS4yOXoiLz4mI3hhOwk8cGF0aCBjbGFzcz0ic3QwIHN0MSIgZD0iTTYuMTMgNi4yOWgwYTMuNzggMy43OCAwIDAgMSA1LjE2NS01LjE2M0EzLjc4IDMuNzggMCAwIDEgOS40IDguMThhMy44IDMuOCAwIDAgMS0zLjI3LTEuODl6TTExIDMuNDlhMS44NCAxLjg0IDAgMCAwLTEuNTktLjkyQTEuODMgMS44MyAwIDAgMCA3LjU3IDQuNGExLjg0IDEuODQgMCAwIDAgMi43OTQgMS43MDZBMS44NCAxLjg0IDAgMCAwIDExLjI0IDQuNGExLjggMS44IDAgMCAwLS4yNC0uOTF6Ii8+JiN4YTsJPHBhdGggY2xhc3M9InN0MCBzdDIiIGQ9Ik01LjYzIDEwLjk0djUuMjJsMS44Ny0xLjQxdi0xLjYzYTMuMjkgMy4yOSAwIDAgMC0xLjg3LTIuMTh6bTUuNyAzLjg3bDQuNTItMi42MS0yLjIxLTEtMS4yNS44YTQuMjMgNC4yMyAwIDAgMC0xLjA2IDIuODZ6Ii8+JiN4YTsJPHBhdGggY2xhc3M9InN0MCBzdDEiIGQ9Ik0uNTEgMTYuN2gwYTMuNzcgMy43NyAwIDAgMSAxLjM4LTUuMTYgMy43MiAzLjcyIDAgMCAxIDIuODYtLjM4QTMuNzggMy43OCAwIDEgMSAuNTEgMTYuN3ptNC44NS0yLjgxQTEuNzkgMS43OSAwIDAgMCA0LjI1IDEzYTEuODMgMS44MyAwIDAgMC0yLjA2IDIuNjloMGMuMzI5LjU2Ni45MzQuOTE0IDEuNTg5LjkxM2ExLjgzIDEuODMgMCAwIDAgMS41ODUtLjkyYy4zMjYtLjU2OC4zMjQtMS4yNjctLjAwNC0xLjgzM3ptNi45NyAyLjQ3aDBhMy43OSAzLjc5IDAgMCAxIDAtMy43NyAzLjc5IDMuNzkgMCAwIDEgNS4xNi0xLjM5IDMuNzggMy43OCAwIDAgMS0xLjg5IDcuMDQ0IDMuNzggMy43OCAwIDAgMS0zLjI3LTEuODg0em00Ljg2LTIuODFhMiAyIDAgMCAwLS42Ny0uNjcgMS44NSAxLjg1IDAgMCAwLTIuNTEuNjggMS44NiAxLjg2IDAgMCAwIDAgMS44MyAxLjgzIDEuODMgMCAwIDAgMi4wNy44NSAxLjgyIDEuODIgMCAwIDAgMS4xMS0uODUgMS44OCAxLjg4IDAgMCAwIDAtMS44NHoiLz4mI3hhOwk8cGF0aCBjbGFzcz0ic3QwIHN0MyIgZD0iTTcuNDkgMTQuMTVsLTIuOCAyLjI1IDIuODYtMS42NWE0LjA3IDQuMDcgMCAwIDAtLjA2LS42ek04LjE1IDhsLS41OS0zLjZ2My4yOWEzLjQ3IDMuNDcgMCAwIDAgLjU5LjI3em01LjE1IDMuNDdsMy4yMiAxLjQxLTIuODYtMS42NGExLjY5IDEuNjkgMCAwIDAtLjM2LjIzeiIvPiYjeGE7PC9zdmc+;shadow=1;dashed=1;fillColor=none;" vertex="1" parent="LT_vOoL6KCZ4grznQXuA-116">
          <mxGeometry width="30" height="28" relative="1" as="geometry">
            <mxPoint x="15" y="16" as="offset" />
          </mxGeometry>
        </mxCell>
        <mxCell id="LT_vOoL6KCZ4grznQXuA-122" value="" style="strokeColor=#dddddd;shadow=1;strokeWidth=1;rounded=1;absoluteArcSize=1;arcSize=2;dashed=1;fontColor=default;fillColor=none;" vertex="1" parent="LT_vOoL6KCZ4grznQXuA-69">
          <mxGeometry x="380" y="290" width="130" height="60" as="geometry" />
        </mxCell>
        <mxCell id="LT_vOoL6KCZ4grznQXuA-123" value="BigQuery" style="editableCssRules=.*;fontColor=#000000;shape=image;verticalLabelPosition=middle;labelBackgroundColor=#ffffff;verticalAlign=middle;labelPosition=right;align=left;spacingLeft=20;part=1;points=[];imageAspect=0;image=data:image/svg+xml,PHN2ZyB4bWxucz0iaHR0cDovL3d3dy53My5vcmcvMjAwMC9zdmciIHhtbG5zOnY9Imh0dHBzOi8vdmVjdGEuaW8vbmFubyIgd2lkdGg9IjIwLjAwMTA0NTIyNzA1MDc4IiBoZWlnaHQ9IjIwLjAwMTA0NTIyNzA1MDc4IiBmaWxsLXJ1bGU9ImV2ZW5vZGQiIHZpZXdCb3g9IjAgMCAyMC4wMDEwNDUyMjcwNTA3OCAyMC4wMDEwNDUyMjcwNTA3OCI+JiN4YTsJPHN0eWxlIHR5cGU9InRleHQvY3NzIj4mI3hhOwkuc3Qwe2ZpbGw6I2FlY2JmYTt9JiN4YTsJLnN0MXtmaWxsOiM2NjlkZjY7fSYjeGE7CS5zdDJ7ZmlsbDojNDI4NWY0O30mI3hhOwk8L3N0eWxlPiYjeGE7CTxwYXRoIGNsYXNzPSJzdDAiIGQ9Ik00LjczIDguODN2Mi42M2E0LjkxIDQuOTEgMCAwIDAgMS43MSAxLjc0VjguODN6Ii8+JiN4YTsJPHBhdGggY2xhc3M9InN0MSIgZD0iTTcuODkgNi40MXY3LjUzQTcuNjIgNy42MiAwIDAgMCA5IDE0YTggOCAwIDAgMCAxIDBWNi40MXoiLz4mI3hhOwk8cGF0aCBjbGFzcz0ic3QwIiBkPSJNMTEuNjQgOS44NnYzLjI5YTUgNSAwIDAgMCAxLjctMS44MlY5Ljg2eiIvPiYjeGE7CTxwYXRoIGNsYXNzPSJzdDIiIGQ9Ik0xNS43NCAxNC4zMmwtMS40MiAxLjQyYS40Mi40MiAwIDAgMCAwIC42bDMuNTQgMy41NGEuNDIuNDIgMCAwIDAgLjU5IDBsMS40My0xLjQzYS40Mi40MiAwIDAgMCAwLS41OWwtMy41NC0zLjU0YS40Mi40MiAwIDAgMC0uNiAwIi8+JiN4YTsJPHBhdGggY2xhc3M9InN0MSIgZD0iTTkgMGE5IDkgMCAxIDAgMCAxOEE5IDkgMCAxIDAgOSAwbTAgMTUuNjlhNi42OCA2LjY4IDAgMCAxIC4wMDctMTMuMzYgNi42OCA2LjY4IDAgMCAxIDQuNzI3IDExLjQwM0E2LjY4IDYuNjggMCAwIDEgOSAxNS42OSIvPiYjeGE7PC9zdmc+;shadow=1;dashed=1;fillColor=none;" vertex="1" parent="LT_vOoL6KCZ4grznQXuA-122">
          <mxGeometry width="30" height="30" relative="1" as="geometry">
            <mxPoint x="15" y="15" as="offset" />
          </mxGeometry>
        </mxCell>
        <mxCell id="LT_vOoL6KCZ4grznQXuA-55" value="Application" style="strokeColor=#dddddd;shadow=1;strokeWidth=1;rounded=1;absoluteArcSize=1;arcSize=2;labelPosition=center;verticalLabelPosition=middle;align=center;verticalAlign=bottom;spacingLeft=0;fontColor=#999999;fontSize=12;whiteSpace=wrap;spacingBottom=2;dashed=1;labelBackgroundColor=none;fillColor=none;" vertex="1" parent="1">
          <mxGeometry x="150" y="-1210.0004081632653" width="70" height="83.26530612244898" as="geometry" />
        </mxCell>
        <mxCell id="LT_vOoL6KCZ4grznQXuA-56" value="" style="sketch=0;dashed=0;connectable=0;html=1;fillColor=#757575;strokeColor=none;shape=mxgraph.gcp2.application;part=1;shadow=1;labelBackgroundColor=none;fontColor=default;" vertex="1" parent="LT_vOoL6KCZ4grznQXuA-55">
          <mxGeometry x="0.5" width="50" height="40" relative="1" as="geometry">
            <mxPoint x="-25" y="15" as="offset" />
          </mxGeometry>
        </mxCell>
        <mxCell id="LT_vOoL6KCZ4grznQXuA-5" value="Logical Grouping of Services / Instances" style="sketch=0;points=[[0,0,0],[0.25,0,0],[0.5,0,0],[0.75,0,0],[1,0,0],[1,0.25,0],[1,0.5,0],[1,0.75,0],[1,1,0],[0.75,1,0],[0.5,1,0],[0.25,1,0],[0,1,0],[0,0.75,0],[0,0.5,0],[0,0.25,0]];rounded=1;absoluteArcSize=1;arcSize=2;html=1;strokeColor=none;gradientColor=none;shadow=0;dashed=0;fontSize=12;fontColor=#9E9E9E;align=left;verticalAlign=top;spacing=10;spacingTop=-4;fillColor=#E3F2FD;" vertex="1" parent="1">
          <mxGeometry x="640" y="-440" width="250" height="180" as="geometry">
            <mxPoint x="10" y="50" as="offset" />
          </mxGeometry>
        </mxCell>
        <mxCell id="LT_vOoL6KCZ4grznQXuA-6" value="Zone" style="sketch=0;points=[[0,0,0],[0.25,0,0],[0.5,0,0],[0.75,0,0],[1,0,0],[1,0.25,0],[1,0.5,0],[1,0.75,0],[1,1,0],[0.75,1,0],[0.5,1,0],[0.25,1,0],[0,1,0],[0,0.75,0],[0,0.5,0],[0,0.25,0]];rounded=1;absoluteArcSize=1;arcSize=2;html=1;strokeColor=none;gradientColor=none;shadow=0;dashed=0;fontSize=12;fontColor=#9E9E9E;align=left;verticalAlign=top;spacing=10;spacingTop=-4;fillColor=#FFF3E0;" vertex="1" parent="LT_vOoL6KCZ4grznQXuA-5">
          <mxGeometry width="230" height="120" relative="1" as="geometry">
            <mxPoint x="10" y="50" as="offset" />
          </mxGeometry>
        </mxCell>
        <mxCell id="LT_vOoL6KCZ4grznQXuA-7" value="SubNetwork" style="sketch=0;points=[[0,0,0],[0.25,0,0],[0.5,0,0],[0.75,0,0],[1,0,0],[1,0.25,0],[1,0.5,0],[1,0.75,0],[1,1,0],[0.75,1,0],[0.5,1,0],[0.25,1,0],[0,1,0],[0,0.75,0],[0,0.5,0],[0,0.25,0]];rounded=1;absoluteArcSize=1;arcSize=2;html=1;strokeColor=none;gradientColor=none;shadow=0;dashed=0;fontSize=12;fontColor=#9E9E9E;align=left;verticalAlign=top;spacing=10;spacingTop=-4;fillColor=#EDE7F6;" vertex="1" parent="LT_vOoL6KCZ4grznQXuA-6">
          <mxGeometry width="210" height="60" relative="1" as="geometry">
            <mxPoint x="10" y="50" as="offset" />
          </mxGeometry>
        </mxCell>
        <mxCell id="LT_vOoL6KCZ4grznQXuA-8" value="Kubernetes cluster" style="sketch=0;points=[[0,0,0],[0.25,0,0],[0.5,0,0],[0.75,0,0],[1,0,0],[1,0.25,0],[1,0.5,0],[1,0.75,0],[1,1,0],[0.75,1,0],[0.5,1,0],[0.25,1,0],[0,1,0],[0,0.75,0],[0,0.5,0],[0,0.25,0]];rounded=1;absoluteArcSize=1;arcSize=2;html=1;strokeColor=none;gradientColor=none;shadow=0;dashed=0;fontSize=12;fontColor=#9E9E9E;align=left;verticalAlign=top;spacing=10;spacingTop=-4;fillColor=#FCE4EC;" vertex="1" parent="1">
          <mxGeometry x="640" y="-250" width="250" height="120" as="geometry">
            <mxPoint x="10" y="240" as="offset" />
          </mxGeometry>
        </mxCell>
        <mxCell id="LT_vOoL6KCZ4grznQXuA-9" value="pod" style="sketch=0;points=[[0,0,0],[0.25,0,0],[0.5,0,0],[0.75,0,0],[1,0,0],[1,0.25,0],[1,0.5,0],[1,0.75,0],[1,1,0],[0.75,1,0],[0.5,1,0],[0.25,1,0],[0,1,0],[0,0.75,0],[0,0.5,0],[0,0.25,0]];rounded=1;absoluteArcSize=1;arcSize=2;html=1;strokeColor=none;gradientColor=none;shadow=0;dashed=0;fontSize=12;fontColor=#9E9E9E;align=left;verticalAlign=top;spacing=10;spacingTop=-4;fillColor=#E8F5E9;" vertex="1" parent="LT_vOoL6KCZ4grznQXuA-8">
          <mxGeometry width="210" height="60" relative="1" as="geometry">
            <mxPoint x="10" y="50" as="offset" />
          </mxGeometry>
        </mxCell>
        <mxCell id="LT_vOoL6KCZ4grznQXuA-10" value="Account" style="sketch=0;points=[[0,0,0],[0.25,0,0],[0.5,0,0],[0.75,0,0],[1,0,0],[1,0.25,0],[1,0.5,0],[1,0.75,0],[1,1,0],[0.75,1,0],[0.5,1,0],[0.25,1,0],[0,1,0],[0,0.75,0],[0,0.5,0],[0,0.25,0]];rounded=1;absoluteArcSize=1;arcSize=2;html=1;strokeColor=none;gradientColor=none;shadow=0;dashed=0;fontSize=12;fontColor=#9E9E9E;align=left;verticalAlign=top;spacing=10;spacingTop=-4;fillColor=#E8EAF6;" vertex="1" parent="1">
          <mxGeometry x="640" y="-120" width="250" height="60" as="geometry">
            <mxPoint x="10" y="370" as="offset" />
          </mxGeometry>
        </mxCell>
        <mxCell id="LT_vOoL6KCZ4grznQXuA-11" value="Region" style="sketch=0;points=[[0,0,0],[0.25,0,0],[0.5,0,0],[0.75,0,0],[1,0,0],[1,0.25,0],[1,0.5,0],[1,0.75,0],[1,1,0],[0.75,1,0],[0.5,1,0],[0.25,1,0],[0,1,0],[0,0.75,0],[0,0.5,0],[0,0.25,0]];rounded=1;absoluteArcSize=1;arcSize=2;html=1;strokeColor=none;gradientColor=none;shadow=0;dashed=0;fontSize=12;fontColor=#9E9E9E;align=left;verticalAlign=top;spacing=10;spacingTop=-4;fillColor=#ECEFF1;" vertex="1" parent="1">
          <mxGeometry x="900" y="-440" width="250" height="310" as="geometry">
            <mxPoint x="270" y="50" as="offset" />
          </mxGeometry>
        </mxCell>
        <mxCell id="LT_vOoL6KCZ4grznQXuA-12" value="Zone" style="sketch=0;points=[[0,0,0],[0.25,0,0],[0.5,0,0],[0.75,0,0],[1,0,0],[1,0.25,0],[1,0.5,0],[1,0.75,0],[1,1,0],[0.75,1,0],[0.5,1,0],[0.25,1,0],[0,1,0],[0,0.75,0],[0,0.5,0],[0,0.25,0]];rounded=1;absoluteArcSize=1;arcSize=2;html=1;strokeColor=none;gradientColor=none;shadow=0;dashed=0;fontSize=12;fontColor=#9E9E9E;align=left;verticalAlign=top;spacing=10;spacingTop=-4;fillColor=#FFF3E0;" vertex="1" parent="LT_vOoL6KCZ4grznQXuA-11">
          <mxGeometry width="230" height="250" relative="1" as="geometry">
            <mxPoint x="10" y="50" as="offset" />
          </mxGeometry>
        </mxCell>
        <mxCell id="LT_vOoL6KCZ4grznQXuA-13" value="Firewall" style="sketch=0;points=[[0,0,0],[0.25,0,0],[0.5,0,0],[0.75,0,0],[1,0,0],[1,0.25,0],[1,0.5,0],[1,0.75,0],[1,1,0],[0.75,1,0],[0.5,1,0],[0.25,1,0],[0,1,0],[0,0.75,0],[0,0.5,0],[0,0.25,0]];rounded=1;absoluteArcSize=1;arcSize=2;html=1;strokeColor=none;gradientColor=none;shadow=0;dashed=0;fontSize=12;fontColor=#9E9E9E;align=left;verticalAlign=top;spacing=10;spacingTop=-4;fillColor=#FBE9E7;" vertex="1" parent="LT_vOoL6KCZ4grznQXuA-12">
          <mxGeometry width="210" height="190" relative="1" as="geometry">
            <mxPoint x="10" y="50" as="offset" />
          </mxGeometry>
        </mxCell>
        <mxCell id="LT_vOoL6KCZ4grznQXuA-14" value="Instance Group" style="sketch=0;points=[[0,0,0],[0.25,0,0],[0.5,0,0],[0.75,0,0],[1,0,0],[1,0.25,0],[1,0.5,0],[1,0.75,0],[1,1,0],[0.75,1,0],[0.5,1,0],[0.25,1,0],[0,1,0],[0,0.75,0],[0,0.5,0],[0,0.25,0]];rounded=1;absoluteArcSize=1;arcSize=2;html=1;strokeColor=none;gradientColor=none;shadow=0;dashed=0;fontSize=12;fontColor=#9E9E9E;align=left;verticalAlign=top;spacing=10;spacingTop=-4;fillColor=#F9FBE7;" vertex="1" parent="LT_vOoL6KCZ4grznQXuA-13">
          <mxGeometry width="190" height="60" relative="1" as="geometry">
            <mxPoint x="10" y="50" as="offset" />
          </mxGeometry>
        </mxCell>
        <mxCell id="LT_vOoL6KCZ4grznQXuA-15" value="Replica Pool" style="sketch=0;points=[[0,0,0],[0.25,0,0],[0.5,0,0],[0.75,0,0],[1,0,0],[1,0.25,0],[1,0.5,0],[1,0.75,0],[1,1,0],[0.75,1,0],[0.5,1,0],[0.25,1,0],[0,1,0],[0,0.75,0],[0,0.5,0],[0,0.25,0]];rounded=1;absoluteArcSize=1;arcSize=2;html=1;strokeColor=none;gradientColor=none;shadow=0;dashed=0;fontSize=12;fontColor=#9E9E9E;align=left;verticalAlign=top;spacing=10;spacingTop=-4;fillColor=#E0F7FA;" vertex="1" parent="LT_vOoL6KCZ4grznQXuA-13">
          <mxGeometry width="190" height="60" relative="1" as="geometry">
            <mxPoint x="10" y="120" as="offset" />
          </mxGeometry>
        </mxCell>
        <mxCell id="LT_vOoL6KCZ4grznQXuA-16" value="Optional Component" style="rounded=1;absoluteArcSize=1;arcSize=2;html=1;strokeColor=none;gradientColor=none;shadow=0;dashed=1;strokeColor=#4284F3;fontSize=12;fontColor=#9E9E9E;align=left;verticalAlign=top;spacing=10;spacingTop=-4;fillColor=none;dashPattern=1 2;strokeWidth=2;" vertex="1" parent="1">
          <mxGeometry x="900" y="-120" width="250" height="60" as="geometry">
            <mxPoint x="270" y="370" as="offset" />
          </mxGeometry>
        </mxCell>
        <mxCell id="LT_vOoL6KCZ4grznQXuA-93" value="" style="shape=image;verticalLabelPosition=bottom;labelBackgroundColor=default;verticalAlign=top;aspect=fixed;imageAspect=0;image=https://docs.pivotal.io/ops-manager/2-8/refarch/images/gcp-nat-flow.png;" vertex="1" parent="1">
          <mxGeometry x="1304" y="-60" width="1450.52" height="1060" as="geometry" />
        </mxCell>
        <mxCell id="LT_vOoL6KCZ4grznQXuA-101" value="" style="group" vertex="1" connectable="0" parent="1">
          <mxGeometry x="1280" y="-1090" width="720" height="260" as="geometry" />
        </mxCell>
        <mxCell id="LT_vOoL6KCZ4grznQXuA-90" value="&lt;font color=&quot;#000000&quot;&gt;Firewall&lt;br&gt;&lt;br&gt;&lt;/font&gt;" style="sketch=0;points=[[0,0,0],[0.25,0,0],[0.5,0,0],[0.75,0,0],[1,0,0],[1,0.25,0],[1,0.5,0],[1,0.75,0],[1,1,0],[0.75,1,0],[0.5,1,0],[0.25,1,0],[0,1,0],[0,0.75,0],[0,0.5,0],[0,0.25,0]];rounded=1;absoluteArcSize=1;arcSize=2;html=1;strokeColor=none;gradientColor=none;shadow=0;dashed=0;fontSize=12;fontColor=#9E9E9E;align=left;verticalAlign=top;spacing=10;spacingTop=-4;fillColor=#FBE9E7;" vertex="1" parent="LT_vOoL6KCZ4grznQXuA-101">
          <mxGeometry width="720" height="260" as="geometry" />
        </mxCell>
        <mxCell id="LT_vOoL6KCZ4grznQXuA-94" value="&lt;div style=&quot;&quot;&gt;&lt;b&gt;Rule Name&lt;/b&gt;&lt;/div&gt;&lt;div style=&quot;&quot;&gt;&lt;br&gt;&lt;/div&gt;&lt;div style=&quot;&quot;&gt;allow-pas-all&lt;/div&gt;&lt;div style=&quot;&quot;&gt;&lt;br&gt;&lt;/div&gt;&lt;div style=&quot;&quot;&gt;allow-http&lt;/div&gt;&lt;div style=&quot;&quot;&gt;&lt;br&gt;&lt;/div&gt;&lt;div style=&quot;&quot;&gt;allow-https&lt;/div&gt;&lt;div style=&quot;&quot;&gt;&lt;br&gt;&lt;/div&gt;&lt;div style=&quot;&quot;&gt;allow-ssh-proxy&lt;/div&gt;&lt;div style=&quot;&quot;&gt;&lt;br&gt;&lt;/div&gt;&lt;div style=&quot;&quot;&gt;allow-ssh&lt;/div&gt;&lt;div style=&quot;&quot;&gt;&lt;br&gt;&lt;/div&gt;&lt;div style=&quot;&quot;&gt;allow-tcp-router&lt;/div&gt;" style="text;html=1;strokeColor=default;fillColor=none;align=center;verticalAlign=middle;whiteSpace=wrap;rounded=0;shadow=1;dashed=1;labelBackgroundColor=none;fontColor=#000000;" vertex="1" parent="LT_vOoL6KCZ4grznQXuA-101">
          <mxGeometry x="10" y="10" width="160" height="240" as="geometry" />
        </mxCell>
        <mxCell id="LT_vOoL6KCZ4grznQXuA-98" value="&lt;div style=&quot;&quot;&gt;&lt;b&gt;Ports&lt;/b&gt;&lt;/div&gt;&lt;div style=&quot;&quot;&gt;&lt;b&gt;&lt;br&gt;&lt;/b&gt;&lt;/div&gt;&lt;div style=&quot;&quot;&gt;{}&lt;/div&gt;&lt;div style=&quot;&quot;&gt;&lt;br&gt;&lt;/div&gt;&lt;div style=&quot;&quot;&gt;&lt;div&gt;{}&lt;/div&gt;&lt;/div&gt;&lt;div style=&quot;&quot;&gt;&lt;br&gt;&lt;/div&gt;&lt;div style=&quot;&quot;&gt;&lt;div&gt;{}&lt;/div&gt;&lt;div&gt;&lt;br&gt;&lt;/div&gt;&lt;/div&gt;&lt;div style=&quot;&quot;&gt;&lt;div&gt;{}&lt;/div&gt;&lt;div&gt;&lt;br&gt;&lt;/div&gt;&lt;/div&gt;&lt;div style=&quot;&quot;&gt;&lt;div&gt;{}&lt;/div&gt;&lt;div&gt;&lt;br&gt;&lt;/div&gt;&lt;/div&gt;&lt;div style=&quot;&quot;&gt;&lt;div&gt;{}&lt;/div&gt;&lt;/div&gt;" style="text;html=1;strokeColor=default;fillColor=none;align=center;verticalAlign=middle;whiteSpace=wrap;rounded=0;shadow=1;dashed=1;labelBackgroundColor=none;fontColor=#000000;" vertex="1" parent="LT_vOoL6KCZ4grznQXuA-101">
          <mxGeometry x="190" y="10" width="160" height="240" as="geometry" />
        </mxCell>
        <mxCell id="LT_vOoL6KCZ4grznQXuA-99" value="&lt;div style=&quot;&quot;&gt;&lt;b&gt;Source-&amp;gt;Dst tags&lt;/b&gt;&lt;/div&gt;&lt;div style=&quot;&quot;&gt;&lt;b&gt;&lt;br&gt;&lt;/b&gt;&lt;/div&gt;&lt;div style=&quot;&quot;&gt;xx&lt;/div&gt;&lt;div style=&quot;&quot;&gt;&lt;br&gt;&lt;/div&gt;&lt;div style=&quot;&quot;&gt;xx&lt;/div&gt;&lt;div style=&quot;&quot;&gt;&lt;br&gt;&lt;/div&gt;&lt;div style=&quot;&quot;&gt;xx&lt;/div&gt;&lt;div style=&quot;&quot;&gt;&lt;br&gt;&lt;/div&gt;&lt;div style=&quot;&quot;&gt;xx&lt;/div&gt;&lt;div style=&quot;&quot;&gt;&lt;br&gt;&lt;/div&gt;&lt;div style=&quot;&quot;&gt;xx&lt;/div&gt;&lt;div style=&quot;&quot;&gt;&lt;br&gt;&lt;/div&gt;&lt;div style=&quot;&quot;&gt;xx&lt;/div&gt;" style="text;html=1;strokeColor=default;fillColor=none;align=center;verticalAlign=middle;whiteSpace=wrap;rounded=0;shadow=1;dashed=1;labelBackgroundColor=none;fontColor=#000000;" vertex="1" parent="LT_vOoL6KCZ4grznQXuA-101">
          <mxGeometry x="370" y="10" width="160" height="240" as="geometry" />
        </mxCell>
        <mxCell id="LT_vOoL6KCZ4grznQXuA-100" value="&lt;div style=&quot;&quot;&gt;&lt;b&gt;Action&lt;/b&gt;&lt;/div&gt;&lt;div style=&quot;&quot;&gt;&lt;b&gt;&lt;br&gt;&lt;/b&gt;&lt;/div&gt;&lt;div style=&quot;&quot;&gt;allow&lt;/div&gt;&lt;div style=&quot;&quot;&gt;&lt;br&gt;&lt;/div&gt;&lt;div style=&quot;&quot;&gt;allow&lt;/div&gt;&lt;div style=&quot;&quot;&gt;&lt;br&gt;&lt;/div&gt;&lt;div style=&quot;&quot;&gt;allow&lt;/div&gt;&lt;div style=&quot;&quot;&gt;&lt;br&gt;&lt;/div&gt;&lt;div style=&quot;&quot;&gt;allow&lt;/div&gt;&lt;div style=&quot;&quot;&gt;&lt;br&gt;&lt;/div&gt;&lt;div style=&quot;&quot;&gt;allow&lt;/div&gt;&lt;div style=&quot;&quot;&gt;&lt;br&gt;&lt;/div&gt;&lt;div style=&quot;&quot;&gt;allow&lt;/div&gt;" style="text;html=1;strokeColor=default;fillColor=none;align=center;verticalAlign=middle;whiteSpace=wrap;rounded=0;shadow=1;dashed=1;labelBackgroundColor=none;fontColor=#000000;" vertex="1" parent="LT_vOoL6KCZ4grznQXuA-101">
          <mxGeometry x="550" y="10" width="160" height="240" as="geometry" />
        </mxCell>
        <mxCell id="LT_vOoL6KCZ4grznQXuA-112" value="" style="shape=image;verticalLabelPosition=bottom;labelBackgroundColor=default;verticalAlign=top;aspect=fixed;imageAspect=0;image=https://miro.medium.com/max/1400/1*QuqkEpEukZOQw85U7thxkw.png;" vertex="1" parent="1">
          <mxGeometry x="1304" y="1020" width="884" height="510" as="geometry" />
        </mxCell>
        <mxCell id="LT_vOoL6KCZ4grznQXuA-102" value="&lt;font color=&quot;#000000&quot;&gt;SubNetwork&lt;/font&gt;" style="sketch=0;points=[[0,0,0],[0.25,0,0],[0.5,0,0],[0.75,0,0],[1,0,0],[1,0.25,0],[1,0.5,0],[1,0.75,0],[1,1,0],[0.75,1,0],[0.5,1,0],[0.25,1,0],[0,1,0],[0,0.75,0],[0,0.5,0],[0,0.25,0]];rounded=1;absoluteArcSize=1;arcSize=2;html=1;strokeColor=none;gradientColor=none;shadow=0;dashed=0;fontSize=12;fontColor=#9E9E9E;align=left;verticalAlign=top;spacing=10;spacingTop=-4;fillColor=#EDE7F6;" vertex="1" parent="1">
          <mxGeometry x="1290" y="-720" width="210" height="60" as="geometry" />
        </mxCell>
        <mxCell id="LT_vOoL6KCZ4grznQXuA-118" value="" style="edgeStyle=orthogonalEdgeStyle;fontSize=12;html=1;endArrow=blockThin;endFill=1;rounded=0;strokeWidth=2;endSize=4;startSize=4;dashed=0;strokeColor=#4284F3;fontColor=#000000;exitX=1;exitY=0.5;exitDx=0;exitDy=0;entryX=0;entryY=0.5;entryDx=0;entryDy=0;" edge="1" parent="1" source="LT_vOoL6KCZ4grznQXuA-119" target="LT_vOoL6KCZ4grznQXuA-45">
          <mxGeometry width="100" relative="1" as="geometry">
            <mxPoint x="410" y="-620" as="sourcePoint" />
            <mxPoint x="510" y="-620" as="targetPoint" />
            <Array as="points" />
          </mxGeometry>
        </mxCell>
      </root>
    </mxGraphModel>
  </diagram>
</mxfile>
